<svg xmlns="http://www.w3.org/2000/svg" viewBox="-0.5 -0.5 3400 2000" height="800" cursor="pointer" xmlns:v="https://vecta.io/nano"><style><![CDATA[.B{pointer-events:all}.C{fill:#000}.D{font-family:Helvetica}.E{text-anchor:middle}.F{stroke:#000}.G{font-size:12px}.H{fill:none}.I{pointer-events:stroke}.J{fill:#fff}.K{stroke-miterlimit:10}.L{font-size:11px}.M{stroke:#ff8000}.N{stroke:#f93}.O{stroke:#ffb570}.P{fill:#ffb570}.Q{stroke:#d79b00}.R{fill:#d79b00}.S{stroke:#bd7000}.T{fill:#bd7000}]]></style><g class="F K"><path d="M2291.49 1448.75l71.69-50.03" class="H I"/><path d="M2367.48 1395.71l-3.74 6.88-.56-3.87-3.44-1.87z" class="B"/><path d="M2278.46 1538.72l147.09-14.92" class="H I"/><path d="M2430.77 1523.27l-6.61 4.19 1.39-3.66-2.1-3.3z" class="B"/></g><text x="2352.5" y="1541.5" class="C D E L">has format</text><g class="F K"><path d="M2153.17 1511.25l-6.01-128.65" class="H I"/><path d="M2146.91 1377.36l3.83 6.83-3.58-1.59-3.42 1.92z" class="B"/></g><text x="2141.5" y="1464.5" class="C D E L">published by</text><g class="K Q"><path d="M2044.51 1523.06L1630 1040" class="H I"/><path d="M2047.93 1527.04l-7.21-3.03 3.79-.95 1.52-3.61z" class="B R"/></g><text x="1849.5" y="1297.5" class="C D E L">has a physical copy</text><ellipse cx="2155" cy="1551.25" rx="130" ry="40" class="B J M"/><text x="2154.5" y="1554.5" class="C D E G">Physical copy of Assassin's Creed 2</text><g class="F K"><path d="M1063.64 266.11l55.88-102.24" class="H I"/><path d="M1122.04 159.27l-.29 7.82-2.23-3.22-3.91-.14z" class="B"/></g><text x="1092.5" y="224.5" class="C D E L">is kept at</text><g class="F K"><path d="M1090 305l163.94-53.04" class="H I"/><path d="M1258.94 250.34l-5.59 5.49.59-3.87-2.74-2.79z" class="B"/></g><text x="1164.5" y="272.5" class="C D E L">was created at some time in</text><g class="F K"><path d="M1063.64 343.89l182.33 34.14" class="H I"/><path d="M1251.13 378.99l-7.52 2.15 2.36-3.11-1.08-3.77z" class="B"/></g><text x="1178.5" y="367.5" class="C D E L">was created by</text><g class="F K"><path d="M936.36 343.89L804.68 465.68" class="H I"/><path d="M800.82 469.24l2.76-7.32 1.1 3.76 3.66 1.38z" class="B"/></g><text x="860.5" y="421.5" class="C D E L">has type</text><g class="F K"><path d="M910 305l-143.66-14.37" class="H I"/><path d="M761.11 290.11l7.32-2.78-2.09 3.3 1.39 3.66z" class="B"/></g><text x="855.5" y="299.5" class="C D E L">uses technique</text><g class="F K"><path d="M1000 360l139.69 189" class="H I"/><path d="M1142.82 553.22l-6.98-3.55 3.85-.67 1.78-3.49z" class="B"/></g><text x="1094.5" y="488.5" class="C D E L">has subject</text><g class="F K"><path d="M944.71 261.6l-98.34-76.91" class="H I"/><path d="M842.24 181.46l7.67 1.55-3.54 1.68-.78 3.84z" class="B"/></g><text x="885.5" y="218.5" class="C D E L">has title</text><g class="F K"><path d="M1000 250V144.45" class="H I"/><path d="M1000 139.2l3.5 7-3.5-1.75-3.5 1.75z" class="B"/></g><text x="1000.5" y="185.5" class="C D E L">is located in</text><ellipse cx="1000" cy="305" rx="90" ry="55" class="B J M"/><text x="999.5" y="308.5" class="C D E G">"Ritrovamento del cadavere di...</text><g class="F K"><path d="M510 1555v-103.63" class="H I"/><path d="M510 1446.12l3.5 7-3.5-1.75-3.5 1.75z" class="B"/></g><text x="509.5" y="1520.5" class="C D E L">has title</text><g class="F K"><path d="M441.27 1634.41l-154.95 66.45" class="H I"/><path d="M281.5 1702.93l5.05-5.98-.23 3.91 2.99 2.53z" class="B"/></g><text x="360.5" y="1671.5" class="C D E L">has type</text><g class="F K"><path d="M770 1618.55l33.92 2.19" class="H I"/><path d="M809.16 1621.08l-7.21 3.04 1.97-3.38-1.52-3.61z" class="B"/><path d="M510 1655v168.63" class="H I"/><path d="M510 1828.88l-3.5-7 3.5 1.75 3.5-1.75z" class="B"/></g><text x="511.5" y="1730.5" class="C D E L">was produced by</text><ellipse cx="510" cy="1605" rx="85" ry="50" class="B J M"/><text x="509.5" y="1608.5" class="C D E G">Assassin's Creed: Lineage</text><ellipse cx="1310" cy="390" rx="60" ry="40" class="B F J"/><text x="1309.5" y="393.5" class="C D E G">Odoardo...</text><ellipse cx="1165" cy="130" rx="60" ry="40" class="B F J"/><text x="1164.5" y="133.5" class="C D E G">Uffizi Gallery</text><ellipse cx="1320" cy="250" rx="60" ry="40" class="B F J"/><text x="1319.5" y="253.5" class="C D E G">1864</text><ellipse cx="700" cy="290" rx="60" ry="40" class="B F J"/><text x="699.5" y="293.5" class="C D E G">oil on canvas</text><ellipse cx="800" cy="510" rx="60" ry="40" class="B F J"/><text x="799.5" y="513.5" class="C D E G">painting</text><g class="F K"><path d="M2267.49 593.81l67.95 77.27" class="H I"/><path d="M2338.91 675.02l-7.25-2.95 3.78-.99 1.47-3.63z" class="B"/></g><text x="2310.5" y="650.5" class="C D E L">has material</text><g class="F K"><path d="M2306.4 569.25l137.33 24.74" class="H I"/><path d="M2448.9 594.92l-7.51 2.21 2.34-3.14-1.1-3.75z" class="B"/></g><text x="2361.5" y="580.5" class="C D E L">has type</text><g class="F K"><path d="M2297.76 534.05l170.9-61.8" class="H I"/><path d="M2473.59 470.46l-5.39 5.67.46-3.88-2.84-2.7z" class="B"/></g><text x="2394.5" y="502.5" class="C D E L">was created by</text><g class="F K"><path d="M2172.44 533.88l-74.68-27.28" class="H I"/><path d="M2092.83 504.8l7.78-.88-2.85 2.68.45 3.89z" class="B"/></g><text x="2141.5" y="523.5" class="C D E L">is located in</text><ellipse cx="2235" cy="556.63" rx="75" ry="41.25" class="B J N"/><text x="2234.5" y="559.5" class="C D E G">Perseus with the Head of...</text><g class="F K"><path d="M178.67 665.47l85.43-67.61" class="H I"/><path d="M174.55 668.73l3.32-7.09.8 3.83 3.54 1.66z" class="B"/></g><text x="206.5" y="644.5" class="C D E L">has type</text><ellipse cx="135" cy="700" rx="60" ry="40" class="B F J"/><text x="134.5" y="703.5" class="C D E G">Soundtrack</text><ellipse cx="870" cy="1625" rx="60" ry="40" class="B F J"/><text x="869.5" y="1628.5" class="C D E G">Yves Simoneau</text><ellipse cx="2500" cy="595.12" rx="50" ry="20" class="B F J"/><text x="2499.5" y="598.5" class="C D E G">Statue</text><ellipse cx="2375" cy="690" rx="50" ry="20" class="B F J"/><text x="2374.5" y="693.5" class="C D E G">Bronze</text><ellipse cx="2510" cy="455.94" rx="50" ry="20" class="B F J"/><text x="2509.5" y="459.5" class="C D E G">Benvenuto Cellini</text><g class="F K"><path d="M251.62 500.22l-144.1-108.11" class="H I"/><path d="M103.32 388.96l7.7 1.4-3.5 1.75-.7 3.85z" class="B"/></g><text x="188.5" y="460.5" class="C D E L">was released in</text><g class="F K"><path d="M330 480.82l-53-159.78" class="H I"/><path d="M275.35 316.06l5.53 5.54-3.88-.56-2.77 2.77z" class="B"/></g><text x="297.5" y="385.5" class="C D E L">was created by</text><g class="F K"><path d="M408.38 500.22l47.23-145.88" class="H I"/><path d="M457.23 349.35l1.17 7.74-2.79-2.75-3.87.59z" class="B"/></g><text x="427.5" y="441.5" class="C D E L">was released on</text><ellipse cx="330" cy="545.82" rx="110" ry="65" class="B J M"/><text x="329.5" y="548.5" class="C D E G">"Assassin’s Creed II:...</text><ellipse cx="2500" cy="1516.25" rx="70" ry="30" class="B F J"/><text x="2499.5" y="1519.5" class="C D E G">DVD-ROM</text><ellipse cx="230" cy="1725" rx="60" ry="40" class="B F J"/><text x="229.5" y="1728.5" class="C D E G">TV Mini Series</text><ellipse cx="275" cy="275" rx="60" ry="40" class="B F J"/><text x="274.5" y="278.5" class="C D E G">Jesper Kyd</text><ellipse cx="2145" cy="1336.25" rx="100" ry="40" class="B F J"/><text x="2144.5" y="1339.5" class="C D E G">Ubisoft</text><ellipse cx="60" cy="360" rx="60" ry="40" class="B F J"/><text x="59.5" y="363.5" class="C D E G">worldwide</text><ellipse cx="2410" cy="1366.25" rx="60" ry="40" class="B F J"/><text x="2409.5" y="1369.5" class="C D E G">11/17/09 </text><ellipse cx="500" cy="320" rx="60" ry="40" class="B F J"/><text x="499.5" y="323.5" class="C D E G">20/09/2009</text><ellipse cx="510" cy="1405" rx="60" ry="40" class="B F J"/><text x="509.5" y="1408.5" class="C D E G">"Assassin's Creed: L...</text><text x="2269.5" y="1466.5" class="C D E G">released on</text><g class="F"><path d="M2203.9 1514.19l46.39-35.44" class="H I K"/><ellipse cx="775" cy="1805" rx="45" ry="40" class="B J"/></g><text x="774.5" y="1808.5" class="C D E G">26/10/2009</text><g class="F K"><path d="M570.1 1640.36l166.56 133.82" class="H I"/><path d="M740.75 1777.47l-7.65-1.66 3.56-1.63.83-3.82z" class="B"/></g><text x="623.5" y="1682.5" class="C D E L">was released in </text><ellipse cx="1170" cy="590" rx="60" ry="40" class="B F J"/><text x="1169.5" y="593.5" class="C D E G">Jacopo de' Pazzi</text><g class="F K"><path d="M2694.63 1341.76l-82.42-134.73" class="H I"/><path d="M2609.47 1202.55l6.64 4.15-3.9.33-2.07 3.32z" class="B"/></g><text x="2661.5" y="1253.5" class="C D E L">has language</text><g class="F K"><path d="M2728.28 1340.74l79.42-204.8" class="H I"/><path d="M2809.6 1131.04l.73 7.79-2.63-2.89-3.9.36z" class="B"/></g><text x="2764.5" y="1244.5" class="C D E L">has author</text><g class="F K"><path d="M2760.96 1350.25l186.06-187.15" class="H I"/><path d="M2950.72 1159.37l-2.45 7.44-1.25-3.71-3.72-1.23z" class="B"/></g><text x="2831.5" y="1274.5" class="C D E L">has type</text><g class="F K"><path d="M2780 1375l233.64 14.6" class="H I"/><path d="M3018.88 1389.93l-7.2 3.06 1.96-3.39-1.52-3.6z" class="B"/></g><text x="2906.5" y="1374.5" class="C D E L">was published on</text><g class="F K"><path d="M2760.59 1399.95l213.82 116.99" class="H I"/><path d="M2979.02 1519.46l-7.82-.29 3.21-2.23.15-3.91z" class="B"/></g><text x="2868.5" y="1463.5" class="C D E L">was published by</text><ellipse cx="2715" cy="1375" rx="65" ry="35" class="B J M"/><text x="2714.5" y="1378.5" class="C D E G">Assassin's Creed: Ren...</text><ellipse cx="2810" cy="1110" rx="50" ry="20" class="B F J"/><text x="2809.5" y="1113.5" class="C D E G">Oliver Bowden</text><ellipse cx="3070" cy="1390" rx="50" ry="20" class="B F J"/><text x="3069.5" y="1393.5" class="C D E G">23/02/2010</text><ellipse cx="2591.09" cy="1180" rx="50" ry="20" class="B F J"/><text x="2590.5" y="1183.5" class="C D E G">English</text><ellipse cx="3030" cy="1520" rx="50" ry="20" class="B F J"/><text x="3029.5" y="1523.5" class="C D E G">Penguin Books</text><ellipse cx="2970" cy="1140" rx="50" ry="20" class="B F J"/><text x="2969.5" y="1143.5" class="C D E G">Book</text><g class="F K"><path d="M341.01 1063.61l-202.59-73.16" class="H I"/><path d="M133.48 988.66l7.77-.91-2.83 2.7.45 3.88z" class="B"/></g><text x="252.5" y="1034.5" class="C D E L">was created by</text><g class="F K"><path d="M420 1052.5l-28.68-134.89" class="H I"/><path d="M390.23 912.47l4.88 6.12-3.79-.98-3.06 2.44z" class="B"/></g><text x="410.5" y="1000.5" class="C D E L">has type</text><g class="F K"><path d="M321 1133.85l-180.69 57.13" class="H I"/><path d="M135.3 1192.56l5.62-5.45-.61 3.87 2.72 2.81z" class="B"/></g><text x="242.5" y="1160.5" class="C D E L">was created within</text><g class="K S"><path d="M885 1090l468.73-83.88" class="H I"/><path d="M1358.9 1005.2l-6.27 4.68 1.1-3.76-2.34-3.14z" class="B T"/></g><text x="1137.5" y="1044.5" class="C D E L">appears in </text><ellipse cx="440" cy="1102.5" rx="140" ry="55" class="B J M"/><text x="439.5" y="1105.5" class="C D E G">Codex Atlanticus, f.860 recto</text><ellipse cx="255" cy="1472.5" rx="60" ry="40" class="B F J"/><text x="254.5" y="1475.5" class="C D E G">Canada</text><g class="F K"><path d="M445.77 1572.25l-134.11-69.31" class="H I"/><path d="M306.99 1500.53l7.83.11-3.16 2.3-.06 3.92z" class="B"/></g><text x="375.5" y="1539.5" class="C D E L">was create...</text><g class="K Q"><path d="M1363.96 909.66L445.73 561.6" class="H I"/><path d="M440.83 559.74l7.78-.8-2.88 2.66.4 3.89z" class="B R"/></g><text x="1030.5" y="790.5" class="C D E L">has soundtrack</text><g class="K O"><path d="M1719.64 992.54l924.47 380.04" class="H I"/><path d="M2648.97 1374.57l-7.81.58 2.95-2.57-.29-3.9z" class="B P"/></g><text x="1887.5" y="1068.5" class="C D E L">has novelisation</text><g class="K O"><path d="M1450 900l-244.78-271.01" class="H I"/><path d="M1201.7 625.1l7.29 2.85-3.77 1.04-1.42 3.65z" class="B P"/></g><text x="1332.5" y="771.5" class="C D E L">depicts character</text><g class="K O"><path d="M1450 1040l-874.44 526.36" class="H I"/><path d="M571.06 1569.07l4.19-6.61.31 3.9 3.3 2.1z" class="B P"/></g><text x="1076.5" y="1261.5" class="C D E L">has prequel</text><rect x="1360" y="900" width="360" height="140" rx="21" stroke="red" class="B J"/><text x="1539.5" y="973.5" class="C D E G">Assassin's Creed II</text><ellipse cx="390" cy="871.38" rx="60" ry="40" class="B F J"/><text x="389.5" y="874.5" class="C D E G">Drawing</text><g class="F K"><path d="M399.96 1157.5l-76.2 89.12" class="H I"/><path d="M320.35 1250.61l1.89-7.59 1.52 3.6 3.8.95z" class="B"/></g><text x="368.5" y="1200.5" class="C D E L">is held in</text><ellipse cx="80" cy="1210" rx="60" ry="40" class="B F J"/><text x="79.5" y="1213.5" class="C D E G">1478–1519</text><ellipse cx="90" cy="960" rx="60" ry="40" class="B F J"/><text x="89.5" y="963.5" class="C D E G">Leonardo da Vinci</text><ellipse cx="290" cy="1286.25" rx="60" ry="40" class="B F J"/><text x="289.5" y="1289.5" class="C D E G">Biblioteca...</text><g class="K O"><path d="M1663.16 896.74l520.9-309.84" class="H I"/><path d="M1658.64 899.43l4.23-6.59.29 3.9 3.29 2.12z" class="B P"/></g><ellipse cx="1380" cy="1717.5" rx="75" ry="45" class="B J M"/><text x="1379.5" y="1720.5" class="C D E G">GamePro Magazine,...</text><ellipse cx="1570" cy="1615" rx="60" ry="40" class="B F J"/><text x="1569.5" y="1618.5" class="C D E G">9/9/2009</text><ellipse cx="1530" cy="1920" rx="60" ry="40" class="B F J"/><text x="1529.5" y="1923.5" class="C D E G">English</text><ellipse cx="1090" cy="1722.5" rx="60" ry="40" class="B F J"/><text x="1089.5" y="1725.5" class="C D E G">IDG Media</text><ellipse cx="1310" cy="1560" rx="60" ry="40" class="B F J"/><text x="1309.5" y="1563.5" class="C D E G">Magazine</text><g class="F K"><path d="M1433.03 1685.68l103.62-30.63" class="H I"/><path d="M1541.69 1653.56l-5.72 5.34.68-3.85-2.67-2.86z" class="B"/></g><text x="1487.5" y="1672.5" class="C D E L">was publis...</text><g class="F K"><path d="M1433.03 1749.32l58.4 132.61" class="H I"/><path d="M1493.55 1886.74l-6.02-5 3.9.19 2.5-3.01z" class="B"/></g><text x="1450.5" y="1800.5" class="C D E L">has language</text><g class="F K"><path d="M1360.05 1672.95l-30.36-68.79" class="H I"/><path d="M1327.57 1599.36l6.03 4.99-3.91-.19-2.5 3.02z" class="B"/></g><text x="1342.5" y="1638.5" class="C D E L">has type</text><g class="F K"><path d="M1305 1717.5l-55 2.5-93.64 1.64" class="H I"/><path d="M1151.11 1721.73l6.93-3.62-1.68 3.53 1.81 3.47z" class="B"/></g><text x="1226.5" y="1723.5" class="C D E L">was publis...</text><ellipse cx="1200" cy="1870" rx="60" ry="40" class="B F J"/><text x="1199.5" y="1873.5" class="C D E G">United States</text><g class="F K"><path d="M1348.05 1759.98l-102.88 76.45" class="H I"/><path d="M1240.96 1839.56l3.53-6.99.68 3.86 3.5 1.76z" class="B"/></g><text x="1293.5" y="1802.5" class="C D E L">was publis...</text><g class="K Q"><path d="M1505.44 1041.54L1401 1663.34" class="H I"/><path d="M1400.14 1668.52l-2.3-7.49 3.16 2.31 3.75-1.15z" class="B R"/></g><text x="1460.5" y="1305.5" class="C D E L">is featured in</text><g class="F K"><path d="M2237.11 515.4l6.38-109.05" class="H I"/><path d="M2243.8 401.11l3.08 7.19-3.39-1.95-3.59 1.54z" class="B"/></g><text x="2241.5" y="454.5" class="C D E L">was created between</text><ellipse cx="2245" cy="380" rx="50" ry="20" class="B F J"/><text x="2244.5" y="383.5" class="C D E G">1545–1554</text><g class="F K"><path d="M2276.28 522.19l117.17-97.59" class="H I"/><path d="M2397.49 421.24l-3.14 7.17-.9-3.81-3.58-1.57z" class="B"/></g><text x="2343.5" y="470.5" class="C D E L">was revealed on</text><ellipse cx="2420" cy="402.5" rx="50" ry="20" class="B F J"/><text x="2419.5" y="405.5" class="C D E G">27/4/1554</text><g class="F K"><path d="M1783.93 216.59l13.92-170.25" class="H I"/><path d="M1798.28 41.1l2.92 7.27-3.35-2.03-3.63 1.46z" class="B"/></g><text x="1794.5" y="138.5" class="C D E L">is located in</text><g class="F K"><path d="M1827.09 224.78l142.08-123.71" class="H I"/><path d="M1973.13 97.63l-2.98 7.23-.98-3.79-3.62-1.49z" class="B"/></g><text x="1881.5" y="176.5" class="C D E L">was designed by</text><g class="F K"><path d="M1853.34 240.89l200.64-68.82" class="H I"/><path d="M2058.94 170.36l-5.48 5.58.52-3.87-2.79-2.75z" class="B"/></g><text x="1923.5" y="225.5" class="C D E L">was completed in </text><g class="F K"><path d="M1719.76 231.04l-57.42-145.12" class="H I"/><path d="M1660.41 81.04l5.83 5.22-3.9-.34-2.61 2.92z" class="B"/></g><text x="1691.5" y="159.5" class="C D E L">has type</text><g class="F K"><path d="M1864.46 271.32l199.19 13.63" class="H I"/><path d="M2068.88 285.31l-7.22 3.01 1.99-3.37-1.51-3.61z" class="B"/></g><text x="1945.5" y="279.5" class="C D E L">has material</text><g class="K S"><path d="M1780 315l-169.8 577.91" class="H I"/><path d="M1608.72 897.95l-1.39-7.71 2.87 2.67 3.85-.69z" class="B T"/></g><text x="1700.5" y="591.5" class="C D E L">appears in</text><g class="F K"><path d="M1850.29 293.45l84.58 33.22" class="H I"/><path d="M1939.76 328.59l-7.8.7 2.91-2.62-.35-3.9z" class="B"/></g><text x="1895.5" y="314.5" class="C D E L">has title</text><ellipse cx="1780" cy="265.77" rx="85" ry="49.23" class="B J N"/><text x="1779.5" y="268.5" class="C D E G">Palazzo Vecchio</text><ellipse cx="1800" cy="20" rx="50" ry="20" class="B F J"/><text x="1799.5" y="23.5" class="C D E G">Florence</text><ellipse cx="2005" cy="70" rx="70" ry="30" class="B F J"/><text x="2004.5" y="73.5" class="C D E G">Arnolfo di Cambio</text><ellipse cx="2110" cy="170" rx="50" ry="20" class="B F J"/><text x="2109.5" y="173.5" class="C D E G">1314</text><ellipse cx="2130" cy="285.38" rx="60" ry="29.615" class="B F J"/><text x="2129.5" y="288.5" class="C D E G">solid rusticated sto...</text><ellipse cx="1660" cy="60" rx="50" ry="20" class="B F J"/><text x="1659.5" y="63.5" class="C D E G">Building</text><g class="F K"><path d="M2751.5 887.99l128.09-201.61" class="H I"/><path d="M2882.4 681.94l-.8 7.79-2.01-3.35-3.9-.4z" class="B"/></g><text x="2777.5" y="801.5" class="C D E L">originates from</text><g class="F K"><path d="M2760.36 888.93l179.05-172.51" class="H I"/><path d="M2943.19 712.78l-2.61 7.37-1.17-3.73-3.68-1.31z" class="B"/></g><text x="2844.5" y="824.5" class="C D E L">was created around</text><g class="F K"><path d="M2781.71 893.42l257.05-106.83" class="H I"/><path d="M3043.61 784.57l-5.12 5.92.27-3.9-2.95-2.56z" class="B"/></g><text x="2875.5" y="860.5" class="C D E L">has type</text><g class="F K"><path d="M2802.47 904.44l253.34-30.52" class="H I"/><path d="M3061.02 873.29l-6.53 4.31 1.32-3.68-2.16-3.27z" class="B"/></g><text x="2903.5" y="893.5" class="C D E L">has material</text><g class="F K"><path d="M2736.09 887.38V731.25" class="H I"/><path d="M2736.09 726l3.5 7-3.5-1.75-3.5 1.75z" class="B"/></g><text x="2733.5" y="815.5" class="C D E L">is kept at</text><g class="F K"><path d="M2806 913.68l247.69 5.25" class="H I"/><path d="M3058.94 919.04l-7.08 3.35 1.83-3.46-1.68-3.54z" class="B"/></g><text x="2942.5" y="918.5" class="C D E L">has material</text><g class="F K"><path d="M2719.01 936.08l-21.39 87.33" class="H I"/><path d="M2696.37 1028.51l-1.74-7.63 2.99 2.53 3.81-.86z" class="B"/></g><text x="2707.5" y="985.5" class="C D E L">has title</text><g class="F K"><path d="M2762.71 935.5l105.93 92.19" class="H I"/><path d="M2872.6 1031.13l-7.57-1.95 3.61-1.49.98-3.79z" class="B"/></g><text x="2802.5" y="979.5" class="C D E L">was donated by</text><ellipse cx="2736.09" cy="912.38" rx="70" ry="25" class="B J N"/><text x="2735.5" y="915.5" class="C D E G">Venetian Falchion</text><ellipse cx="2890" cy="660" rx="50" ry="20" class="B F J"/><text x="2889.5" y="663.5" class="C D E G">Venice, Italy</text><ellipse cx="2990" cy="700" rx="50" ry="20" class="B F J"/><text x="2989.5" y="703.5" class="C D E G">1490 ca.</text><ellipse cx="2736.09" cy="694.88" rx="75" ry="30" class="B F J"/><text x="2735.5" y="697.5" class="C D E G">The Metropolitan Museum o...</text><ellipse cx="3080" cy="770" rx="50" ry="20" class="B F J"/><text x="3079.5" y="773.5" class="C D E G">sword</text><ellipse cx="3110" cy="867.38" rx="50" ry="20" class="B F J"/><text x="3109.5" y="870.5" class="C D E G">steel</text><g class="K S"><path d="M2666.09 912.38l-940.8 13.57" class="H I"/><path d="M1720.04 926.02l6.95-3.6-1.7 3.53 1.8 3.47z" class="B T"/></g><text x="2172.5" y="924.5" class="C D E L">appears in</text><path d="M594.73 1608.95l65.27 3.37" class="F H I K"/><text x="714.5" y="1618.5" class="C D E G">was directed by</text><ellipse cx="3110" cy="920" rx="50" ry="20" class="B F J"/><text x="3109.5" y="923.5" class="C D E G">gold</text><g class="F K"><path d="M2796.2 925.19l253.53 54.51" class="H I"/><path d="M3054.86 980.8l-7.58 1.95 2.45-3.05-.98-3.79z" class="B"/></g><text x="2937.5" y="961.5" class="C D E L">has material</text><ellipse cx="3100" cy="990.5" rx="50" ry="20" class="B F J"/><text x="3099.5" y="993.5" class="C D E G">textile</text><g class="F K"><path d="M748.65 1090.45L580 1102.5" class="H I"/><path d="M753.88 1090.08l-6.73 3.99 1.5-3.62-2-3.36z" class="B"/></g><text x="684.5" y="1096.5" class="C D E L">has subject</text><ellipse cx="820" cy="1090" rx="65" ry="40" class="B F J"/><text x="819.5" y="1093.5" class="C D E G">Mechanical flying...</text><ellipse cx="550" cy="1290" rx="60" ry="40" class="B F J"/><text x="549.5" y="1293.5" class="C D E G">Pen and ink</text><g class="F K"><path d="M477.16 1155.53l63.05 89.27" class="H I"/><path d="M543.24 1249.09l-6.9-3.7 3.87-.59 1.85-3.45z" class="B"/></g><text x="510.5" y="1205.5" class="C D E L">has techni...</text><ellipse cx="812.5" cy="145" rx="72.5" ry="35" class="B F J"/><text x="812.5" y="148.5" class="C D E G">"Ritrovamento del cadave...</text><ellipse cx="2680" cy="1050" rx="50" ry="20" class="B F J"/><text x="2679.5" y="1053.5" class="C D E G">Falchion</text><g class="F K"><path d="M2715 1410l95.05 169.99" class="H I"/><path d="M2812.61 1584.57l-6.47-4.4 3.91-.18 2.2-3.23z" class="B"/></g><text x="2762.5" y="1501.5" class="C D E L">was published in</text><ellipse cx="2858.05" cy="1605" rx="51.955" ry="25" class="B F J"/><text x="2857.5" y="1608.5" class="C D E G">London &amp; New York</text><ellipse cx="1985" cy="340" rx="50" ry="20" class="B F J"/><text x="1984.5" y="343.5" class="C D E G">Palazzo Vecchio</text><ellipse cx="1000" cy="98.08" rx="60" ry="40" class="B F J"/><text x="999.5" y="101.5" class="C D E G">Florence</text><ellipse cx="510" cy="1870" rx="65" ry="40" class="B J M"/><text x="509.5" y="1873.5" class="C D E G">Hybride Technology</text><ellipse cx="2045" cy="487.43" rx="55" ry="32.31" class="B J N"/><text x="2044.5" y="490.5" class="C D E G">Florence</text><g class="F K"><path d="M527.08 1054.76l57.03-171" class="H I"/><path d="M585.77 878.78l1.1 7.75-2.76-2.77-3.88.55z" class="B"/></g><text x="560.5" y="956.5" class="C D E L">has title</text><ellipse cx="592.5" cy="843" rx="72.5" ry="35" class="B F J"/><text x="592.5" y="846.5" class="C D E G">"Codice Atlantico (Codex...</text><g class="F K"><path d="M395.78 599.77l28.83 61.12" class="H I"/><path d="M426.85 665.64l-6.15-4.84 3.91.09 2.42-3.07z" class="B"/></g><text x="413.5" y="641.5" class="C D E L">has title</text><ellipse cx="447.5" cy="709.77" rx="72.5" ry="44.885" class="B F J"/><text x="447.5" y="712.5" class="C D E G">"Assassin’s Creed II:...</text><ellipse cx="1730" cy="1790" rx="60" ry="40" class="B F J"/><text x="1729.5" y="1793.5" class="C D E G">"GamePro"</text><g class="F K"><path d="M1456.5 1728.39l207.38 59.84" class="H I"/><path d="M1668.93 1789.69l-7.7 1.42 2.65-2.88-.71-3.84z" class="B"/></g><text x="1562.5" y="1761.5" class="C D E L">has title</text><ellipse cx="2015" cy="1725" rx="60" ry="40" class="B F J"/><text x="2014.5" y="1728.5" class="C D E G">United States</text><g class="F K"><path d="M2115.48 1593.89l-69.39 90.41" class="H I"/><path d="M2042.89 1688.46l1.49-7.68 1.71 3.52 3.84.74z" class="B"/></g><text x="2078.5" y="1644.5" class="C D E L">was publis...</text><g class="F K"><path d="M2220.35 1585.83l170 90.36" class="H I"/><path d="M2394.99 1678.65l-7.82-.19 3.18-2.27.1-3.92z" class="B"/></g><text x="2321.5" y="1641.5" class="C D E L">has title</text><ellipse cx="2440" cy="1702.5" rx="70" ry="30" class="B F J"/><text x="2439.5" y="1705.5" class="C D E G">"Assassin's creed II"</text><g class="F K"><path d="M2779.09 1368.14l232.04-128.29" class="H I"/><path d="M3015.73 1237.31l-4.43 6.45-.17-3.91-3.22-2.21z" class="B"/></g><text x="2865.5" y="1313.5" class="C D E L">has title</text><ellipse cx="3065" cy="1210" rx="65" ry="40" class="B F J"/><text x="3064.5" y="1213.5" class="C D E G">"Assassin's Creed: Re...</text><ellipse cx="2900" cy="1055" rx="70" ry="25" class="B J N"/><text x="2899.5" y="1058.5" class="C D E G">The Lauder Foundation </text><g class="F K"><path d="M2219.7 597.06l-26.99 96.81" class="H I"/><path d="M2191.3 698.92l-1.49-7.68 2.9 2.63 3.84-.75z" class="B"/></g><text x="2188.5" y="668.5" class="C D E L">has title</text><ellipse cx="2191" cy="737" rx="61" ry="37" class="B F J"/><text x="2190.5" y="740.5" class="C D E G">"Perseus with the He...</text><ellipse cx="2200" cy="1740" rx="60" ry="40" class="B F J"/><text x="2199.5" y="1743.5" class="C D E G">??</text><g class="F K"><path d="M2165.4 1592.53l23.99 101.74" class="H I"/><path d="M2190.6 1699.38l-5.01-6.01 3.8.9 3.01-2.51z" class="B"/></g><text x="2177.5" y="1648.5" class="C D E L">has type</text></svg>
